<svg width="279" height="53" viewBox="0 0 279 53" fill="none" xmlns="http://www.w3.org/2000/svg">
<path d="M0.112603 0.337891H17.6787C17.4535 5.17984 18.4669 9.90917 20.4938 14.3007C21.3946 16.215 22.5207 18.1292 23.8719 19.8183V0.337891L28.0382 0.450494L28.1508 28.7139H23.7593C23.7593 28.4887 23.6467 28.0383 23.6467 27.8131C23.5341 27.0249 23.1963 26.2367 22.8585 25.561C22.6333 24.998 22.2955 24.435 21.8451 23.872C21.0568 22.8586 20.0434 21.9577 18.9174 21.2821C17.7913 20.6065 16.5527 20.1561 15.4267 19.8183C13.8502 19.3679 12.2738 18.9174 10.6973 18.6922C9.57129 18.467 8.22005 18.3544 7.09401 18.3544C6.7562 18.3544 6.19318 18.3544 5.74277 18.3544C5.40496 18.3544 5.06715 18.3544 4.72934 18.3544C4.50413 18.3544 4.27893 18.3544 4.05372 18.3544V28.8265H0L0.112603 0.337891Z" fill="#1BAB30"/>
<path d="M33.218 1.01333C37.3843 0.675522 43.4649 0.225109 47.7438 0.225109C53.2613 0.112505 61.3688 0.788125 66.7738 1.23854V14.0753C65.9855 14.0753 64.8595 13.9627 64.0713 13.9627C62.8326 13.9627 61.031 13.8501 59.7923 13.8501C59.4545 13.8501 58.8915 13.8501 58.5537 13.8501H57.9907C55.8512 13.7375 52.8109 13.7375 50.6715 13.7375C48.8698 13.7375 47.0682 13.8501 45.3791 13.9627C44.5909 14.0753 43.3523 14.1879 42.564 14.3005C42.2262 14.3005 41.8884 14.4131 41.5506 14.4131C41.2128 14.4131 40.875 14.5257 40.5372 14.5257H40.4246C40.1994 14.5257 39.9742 14.6383 39.8615 14.6383C39.6363 14.6383 39.4111 14.7509 39.1859 14.7509C39.0733 14.7509 38.8481 14.7509 38.7355 14.8635C38.6229 14.8635 38.3977 14.9761 38.2851 14.9761C38.0599 15.0888 37.9473 15.2014 37.8347 15.314C37.7221 15.4266 37.6095 15.6518 37.6095 15.7644C37.6095 15.877 37.6095 15.9896 37.7221 16.2148L37.9473 16.5526C38.1725 16.7778 38.7355 16.8904 39.0733 16.8904C39.4111 17.003 39.9742 17.003 40.312 17.1156C40.7624 17.2282 41.3254 17.3408 41.7758 17.3408C42.9018 17.4534 44.0279 17.566 45.1539 17.566C45.7169 17.566 46.3925 17.6786 46.843 17.6786C47.1808 17.6786 47.6312 17.6786 47.969 17.7912C48.1942 17.7912 48.532 17.7912 48.7572 17.7912C49.9959 17.9038 51.9101 18.0164 53.2614 18.0164C55.063 18.129 57.6529 18.129 59.4545 18.129H59.5671C61.594 18.129 64.7469 18.2416 66.7738 18.2416V21.7323C65.6477 21.7323 63.8461 21.6197 62.72 21.6197C60.468 21.6197 57.7655 21.6197 55.4008 21.6197C54.2748 21.6197 53.0361 21.6197 51.9101 21.6197C50.7841 21.6197 49.5454 21.6197 48.4194 21.7323C47.6312 21.7323 46.843 21.845 46.0547 21.845C45.3791 21.845 44.3657 21.9576 43.6901 21.9576C43.127 21.9576 42.3388 22.0702 41.7758 22.0702C41.1002 22.1828 40.4246 22.1828 39.8615 22.2954C39.6363 22.2954 39.2985 22.408 39.0733 22.408C38.8481 22.5206 38.6229 22.5206 38.3977 22.6332C38.2851 22.7458 38.0599 22.8584 37.9473 22.971C37.8347 23.0836 37.7221 23.1962 37.7221 23.3088C37.7221 23.4214 37.8347 23.6466 37.8347 23.7592C37.9473 23.8718 38.0599 23.9844 38.1725 24.097C38.5103 24.3222 39.0733 24.5474 39.4111 24.5474C39.6363 24.5474 40.0868 24.66 40.312 24.66C40.4246 24.66 40.6498 24.66 40.7624 24.7726C40.9876 24.7726 41.3254 24.7726 41.5506 24.8852H41.7758C41.8884 24.8852 42.1136 24.9978 42.3388 24.9978C43.2397 25.1105 44.2531 25.2231 45.1539 25.2231C45.7169 25.2231 46.5051 25.2231 46.9556 25.3357C47.2934 25.3357 47.7438 25.3357 48.0816 25.3357C48.8698 25.3357 49.9959 25.4483 50.7841 25.4483C51.0093 25.4483 51.2345 25.4483 51.4597 25.4483C52.4731 25.4483 53.7118 25.5609 54.7252 25.5609C57.3151 25.5609 59.9049 25.5609 62.4948 25.4483C63.7335 25.4483 65.4225 25.3357 66.5485 25.2231L66.6611 27.5877C65.8729 27.7003 64.8595 27.8129 64.0713 27.8129C62.2696 27.9255 59.9049 28.1507 58.1033 28.1507C56.5268 28.2633 54.3874 28.2633 52.9235 28.3759C51.1219 28.3759 48.4194 28.2633 46.5051 28.1507H46.1673H45.7169C44.1405 28.0381 41.6632 27.9255 40.0868 27.8129C38.9607 27.7003 37.6095 27.5877 36.4834 27.4751C35.47 27.3625 34.1188 27.2499 33.1053 27.1373L33.218 1.01333Z" fill="#1BAB30"/>
<path d="M72.1787 0.225207C72.9669 0.225207 74.2056 0.225207 75.1064 0.225207C76.0072 0.225207 77.6963 0.112603 78.4845 0.112603C78.7097 0.112603 79.0475 0.112603 79.2727 0.112603C81.2996 0.112603 83.6643 0 85.6911 0C87.155 0 88.5062 0 89.8574 0.112603C91.0961 0.112603 93.0103 0.225207 94.249 0.33781C95.4876 0.450413 97.2893 0.563017 98.6405 0.563017C99.9917 0.563017 101.568 0.788224 102.919 0.900827C103.482 1.01343 104.045 1.12603 104.496 1.35124C105.059 1.57645 105.397 2.02686 105.509 2.58988C105.622 2.92769 105.622 3.3781 105.622 3.71591C105.735 5.51756 105.735 7.31922 105.735 9.12087C105.735 10.6973 105.735 13.8502 105.622 15.4267C105.622 15.6519 105.622 15.9897 105.509 16.3275C105.509 16.5527 105.509 16.8905 105.509 17.1157C105.509 17.4535 105.397 18.1291 105.284 18.3543C104.946 18.9174 103.933 19.2552 103.257 19.3678C102.582 19.593 101.681 19.8182 101.005 19.9308C101.681 20.0434 102.582 20.2686 103.257 20.3812H103.482C103.82 20.4938 104.496 20.6064 104.834 20.719C105.171 20.8316 105.397 21.1694 105.622 21.3946C105.847 21.8451 105.96 22.4081 106.072 22.8585C106.072 23.6467 106.072 24.3223 106.072 25.1105C106.072 25.6736 105.96 26.687 105.622 27.0248C105.171 27.5878 104.158 27.813 103.37 27.9256C101.568 28.1508 99.4287 28.2634 97.6271 28.376C94.9246 28.4887 91.9969 28.7139 89.1818 28.7139C86.4793 28.7139 83.5517 28.7139 80.7366 28.6013C79.1601 28.4887 76.9081 28.376 75.3316 28.2634C74.9938 28.2634 74.656 28.2634 74.3182 28.1508C73.7552 28.1508 72.8543 28.0382 72.2913 28.0382L72.1787 0.225207ZM76.4576 17.9039C77.1333 17.9039 78.2593 17.9039 78.9349 17.9039C79.1601 17.9039 79.4979 17.9039 79.7231 17.9039C80.624 17.9039 81.9752 17.9039 82.876 18.0165C84.5651 18.0165 86.9298 17.9039 88.6188 17.7913C89.6322 17.6787 91.2087 17.6787 92.2221 17.6787C94.3616 17.5661 96.6136 17.3409 98.7531 17.0031C99.4287 16.8905 99.9917 16.6653 100.555 16.3275C100.78 16.2149 101.118 15.8771 101.118 15.6519C101.118 15.4267 100.78 15.2015 100.555 15.0889C100.442 14.9762 100.33 14.9762 100.104 14.8636C99.7665 14.751 99.4287 14.6384 99.0909 14.5258C98.0775 14.3006 96.9514 14.0754 95.8254 13.9628C94.4742 13.8502 92.1095 13.7376 90.7583 13.625C89.6322 13.5124 88.3936 13.5124 87.2676 13.5124C86.1415 13.5124 84.7903 13.3998 83.6643 13.3998C82.5382 13.3998 81.4122 13.3998 80.1736 13.3998C79.6105 13.3998 78.8223 13.5124 78.2593 13.5124C78.0341 13.5124 77.8089 13.5124 77.5837 13.5124C77.2459 13.5124 76.5702 13.5124 76.2324 13.625L76.4576 17.9039ZM76.4576 24.9979C77.1333 24.9979 78.0341 25.1105 78.5971 25.1105C79.8357 25.2232 81.75 25.2232 82.9886 25.2232H83.1012C84.9029 25.2232 87.0424 25.3358 88.844 25.3358C91.5465 25.3358 94.3616 25.2232 97.0641 24.8853C97.8523 24.7727 98.6405 24.6601 99.4287 24.5475C99.8791 24.4349 100.217 24.3223 100.555 24.2097C100.78 24.0971 101.23 23.8719 101.23 23.5341C101.23 23.1963 100.667 22.9711 100.442 22.8585C100.217 22.7459 99.8791 22.6333 99.6539 22.6333C98.9783 22.5207 98.3027 22.2955 97.7397 22.1829C96.7262 21.9577 95.7128 21.8451 94.812 21.7324C93.686 21.6198 92.5599 21.5072 91.3213 21.5072C90.3079 21.5072 88.844 21.5072 87.9432 21.5072C87.4928 21.5072 86.8172 21.5072 86.3667 21.5072C85.8037 21.5072 85.0155 21.5072 84.4525 21.5072C83.5517 21.5072 82.4256 21.5072 81.6374 21.5072C81.0744 21.5072 80.2862 21.5072 79.6105 21.5072C79.2727 21.5072 78.9349 21.5072 78.5971 21.5072C78.0341 21.5072 77.0207 21.5072 76.4576 21.5072V24.9979Z" fill="#1BAB30"/>
<path d="M110.802 1.46392C111.365 1.35132 112.266 1.23872 112.829 1.23872C114.067 1.12611 115.644 1.01351 116.77 0.900907C118.909 0.675701 121.612 0.450494 123.864 0.450494C125.665 0.337891 127.58 0.337891 129.381 0.337891C131.296 0.337891 133.322 0.450494 135.349 0.450494C137.151 0.563097 139.29 0.675701 141.092 0.900907C141.88 1.01351 143.119 1.12611 143.907 1.35132V13.6251C142.894 13.5125 141.317 13.5125 140.191 13.5125C138.052 13.3999 135.8 13.3999 133.66 13.3999C132.309 13.3999 130.395 13.3999 129.156 13.5125C128.818 13.5125 128.368 13.5125 128.143 13.5125C126.791 13.5125 124.314 13.6251 122.963 13.7377C122.4 13.7377 121.724 13.8503 121.161 13.8503C120.711 13.9629 119.923 13.9629 119.472 13.9629C118.121 14.0755 116.77 14.3007 115.644 14.8637C115.306 14.9763 114.855 15.3141 114.855 15.6519C114.855 15.9898 115.306 16.3276 115.644 16.4402C115.982 16.5528 116.319 16.6654 116.657 16.778C117.108 16.8906 117.558 17.0032 118.121 17.0032C118.797 17.1158 119.472 17.1158 120.035 17.1158C121.049 17.2284 122.513 17.2284 123.526 17.2284H123.751C125.665 17.341 129.156 17.4536 131.07 17.4536C133.322 17.5662 138.727 17.4536 141.092 17.4536C141.993 17.4536 143.232 17.4536 144.02 17.4536V20.8317C143.006 20.8317 141.542 20.8317 140.642 20.8317C139.29 20.8317 137.151 20.8317 135.8 20.9443C135.237 20.9443 134.448 20.9443 133.885 20.9443C131.521 20.9443 129.156 21.0569 126.791 21.0569C125.891 21.0569 124.99 21.1695 124.202 21.1695C123.301 21.2821 122.4 21.2821 121.612 21.3947C120.936 21.3947 120.26 21.5073 119.697 21.6199C119.022 21.6199 118.459 21.7325 117.783 21.8451C117.445 21.8451 117.108 21.9577 116.882 22.0703C116.545 22.1829 116.207 22.2955 115.982 22.4081C115.644 22.5208 115.193 22.8586 115.193 23.1964C115.193 23.5342 115.531 23.7594 115.756 23.9846C116.094 24.2098 116.432 24.3224 116.77 24.3224C117.22 24.435 117.783 24.435 118.234 24.5476C118.571 24.5476 119.022 24.5476 119.36 24.6602C119.585 24.6602 119.923 24.6602 120.148 24.6602L126.791 24.998C127.805 24.998 128.931 24.998 129.832 24.998C130.17 24.998 130.733 24.998 131.07 24.998C132.759 24.998 135.237 24.998 136.926 24.998C137.827 24.998 139.178 24.8854 140.079 24.7728C140.416 24.7728 140.979 24.6602 141.317 24.6602C142.218 24.6602 143.457 24.5476 144.245 24.5476V27.3627C142.669 27.4753 140.304 27.7005 138.727 27.8131C137.038 27.9257 134.899 28.1509 133.21 28.1509C130.62 28.2635 127.692 28.2635 124.99 28.2635C122.85 28.2635 120.711 28.1509 118.571 28.0383C116.995 27.9257 115.193 27.8131 113.617 27.5879C112.829 27.4753 111.815 27.3627 111.027 27.2501L110.802 1.46392Z" fill="#1BAB30"/>
<path d="M148.299 0.675781H152.465V14.9764C153.141 15.089 154.041 15.089 154.717 15.2016C155.731 15.3142 157.082 15.3142 158.095 15.4268C160.572 15.5394 163.725 15.652 166.203 15.5394C167.441 15.5394 169.13 15.4268 170.256 15.4268C170.707 15.4268 171.27 15.4268 171.72 15.3142C172.396 15.3142 173.297 15.3142 173.972 15.2016V28.0384C172.959 28.151 171.608 28.2636 170.594 28.2636C168.455 28.3762 166.315 28.4888 164.176 28.4888C162.036 28.4888 159.784 28.4888 157.645 28.3762C155.843 28.3762 153.816 28.2636 152.015 28.151C150.889 28.151 149.2 27.9258 148.073 27.9258L148.299 0.675781Z" fill="#1BAB30"/>
<path d="M196.493 0.450195H200.547V7.4316C200.659 7.2064 200.772 6.98119 200.884 6.86859C200.997 6.64338 201.11 6.30557 201.222 6.19297C201.335 5.96776 201.447 5.74255 201.56 5.62995C201.785 5.29214 202.01 4.84173 202.348 4.50392C202.799 3.9409 203.249 3.37788 203.812 3.04007C204.826 2.36445 206.064 1.91404 207.303 1.68883C208.541 1.46363 209.893 1.23842 211.244 1.12582C211.582 1.12582 212.145 1.01321 212.595 1.01321C214.284 0.900609 216.762 0.675402 218.338 0.675402C220.928 0.562799 223.63 0.562799 226.22 0.675402C227.234 0.675402 228.81 0.788005 229.936 0.900609L229.824 15.3138C228.923 15.3138 227.684 15.2012 226.896 15.2012C225.432 15.2012 222.617 15.0886 221.153 15.0886C219.014 15.0886 216.874 15.0886 214.735 15.2012C212.145 15.3138 208.992 15.539 206.402 15.7643C205.389 15.8769 204.375 15.9895 203.362 16.1021C202.686 16.2147 202.01 16.4399 201.447 16.6651C201.11 16.7777 200.659 17.1155 200.547 17.3407C200.547 17.6785 200.884 17.9037 201.11 18.1289C201.447 18.3541 201.785 18.4667 202.236 18.5793C202.573 18.6919 202.911 18.8045 203.249 18.8045C204.263 19.0298 205.389 19.1424 206.515 19.255C207.528 19.3676 208.654 19.3676 209.668 19.4802C210.118 19.4802 210.681 19.4802 211.131 19.5928C211.92 19.5928 213.271 19.7054 213.946 19.7054C215.072 19.818 216.762 19.818 217.888 19.9306C218.901 19.9306 221.941 20.0432 222.955 20.1558C224.193 20.2684 225.545 20.6062 226.671 21.1692C227.684 21.7322 228.472 22.4079 229.035 23.3087C229.598 24.0969 229.936 24.9977 230.161 25.8986C230.274 26.7994 230.274 28.1506 230.161 29.0515H222.504C222.504 28.8262 222.504 28.3758 222.392 28.1506C222.392 27.7002 222.279 27.2498 222.054 26.912C221.829 26.4616 221.491 26.0112 221.153 25.6733C220.703 25.2229 220.14 24.9977 219.577 24.7725C218.788 24.5473 217.888 24.3221 217.099 24.3221C216.762 24.3221 216.311 24.2095 215.973 24.2095C215.185 24.0969 214.059 23.9843 213.271 23.9843C211.92 23.8717 210.343 23.8717 208.992 23.7591C207.978 23.7591 206.74 23.6465 205.726 23.5339C204.713 23.4213 203.587 22.9709 202.686 22.7457C202.236 22.6331 201.56 22.4079 201.11 22.1826C200.884 22.07 200.547 21.8448 200.321 21.7322V29.1641H196.493V0.450195Z" fill="#1BAB30"/>
<path d="M235.566 5.17983C235.566 4.39161 235.679 3.37818 236.017 2.70256C236.242 2.25215 236.58 1.80173 237.03 1.57653C237.706 1.23872 238.494 1.12611 239.17 1.01351C240.183 0.900907 241.422 0.788304 242.435 0.788304L247.727 0.450494C249.191 0.337891 250.655 0.337891 252.119 0.337891C253.02 0.337891 254.258 0.337891 255.159 0.337891C255.61 0.337891 256.173 0.337891 256.51 0.337891H256.623C256.736 0.337891 256.961 0.337891 257.186 0.337891C257.411 0.337891 257.637 0.337891 257.862 0.337891C259.1 0.337891 260.677 0.450494 262.028 0.563097C263.267 0.675701 264.731 0.788304 265.969 0.900907C266.532 1.01351 267.433 1.12611 268.109 1.23872L268.221 17.4536C267.546 17.4536 266.645 17.341 265.969 17.341C265.406 17.341 264.505 17.2284 263.942 17.2284C263.379 17.2284 262.591 17.1158 262.028 17.1158C260.339 17.0032 258.425 17.0032 256.736 17.0032C255.272 17.0032 253.583 17.1158 252.119 17.2284C250.092 17.341 247.39 17.5662 245.363 17.904C244.349 18.1292 243.449 18.2418 242.435 18.467C241.534 18.6922 240.633 19.03 239.958 19.4805C239.507 19.8183 238.944 20.2687 238.944 20.8317C238.944 21.1695 239.17 21.6199 239.395 21.8451C240.07 22.5208 241.084 22.9712 242.097 23.1964C243.111 23.4216 244.012 23.6468 245.025 23.872C246.827 24.2098 248.741 24.3224 250.543 24.2098C251.781 24.2098 252.907 24.2098 254.146 24.2098C254.371 24.2098 254.709 24.2098 254.934 24.2098V20.2687H268.109V27.1375C267.546 27.2501 266.757 27.3627 266.194 27.3627C264.393 27.5879 262.591 27.8131 260.902 27.9257C259.438 28.0383 258.087 28.1509 256.623 28.1509C255.047 28.1509 253.47 28.2635 252.006 28.1509C249.867 28.0383 247.727 27.9257 245.588 27.7005C244.012 27.4753 242.435 27.2501 240.859 27.0249C240.183 26.9123 239.17 26.6871 238.494 26.4619C238.156 26.3493 237.706 26.2367 237.368 26.1241C237.03 26.0115 236.692 25.8989 236.355 25.7862C236.129 25.6736 235.904 25.4484 235.791 25.1106C235.679 24.7728 235.679 24.2098 235.679 23.7594L235.566 5.17983Z" fill="#1BAB30"/>
<path d="M276.779 20.4937H277.004H277.229C277.342 20.4937 277.567 20.4937 277.68 20.4937L278.018 20.6063L278.243 20.8315C278.355 20.9441 278.355 21.2819 278.355 21.3945C278.243 23.3087 278.243 25.3356 278.243 27.2499C278.243 27.4751 278.243 27.8129 278.13 28.0381C278.018 28.1507 277.68 28.2633 277.455 28.2633C276.892 28.3759 276.103 28.2633 275.54 28.2633C275.315 28.2633 274.977 28.1507 274.865 28.0381C274.752 27.9255 274.752 27.5877 274.752 27.3625C274.752 26.912 274.752 26.4616 274.752 26.0112C274.64 24.5474 274.64 22.7457 274.865 21.2819L274.977 20.9441L275.09 20.6063L275.315 20.4937H275.653C275.878 20.4937 276.103 20.4937 276.216 20.4937H276.779Z" fill="#1BAB30"/>
<path d="M4.47754 43.0029C4.16764 42.415 3.70736 42.1211 3.09668 42.1211C2.486 42.1211 2.10091 42.2396 1.94141 42.4766C1.78646 42.7135 1.70898 42.9551 1.70898 43.2012C1.70898 43.4473 1.81608 43.6387 2.03027 43.7754C2.24447 43.9121 2.56576 44.0329 2.99414 44.1377L3.93066 44.3633C4.38639 44.4681 4.76693 44.6777 5.07227 44.9922C5.3776 45.3021 5.53027 45.6621 5.53027 46.0723C5.53027 46.7923 5.28418 47.3232 4.79199 47.665C4.2998 48.0023 3.74837 48.1709 3.1377 48.1709C2.52702 48.1709 2.00521 48.0752 1.57227 47.8838C1.13932 47.6924 0.770182 47.362 0.464844 46.8926L1.25781 46.3457C1.66341 47.002 2.23763 47.3301 2.98047 47.3301C3.39974 47.3301 3.76204 47.2367 4.06738 47.0498C4.37272 46.863 4.52539 46.5986 4.52539 46.2568C4.52539 45.915 4.40234 45.6735 4.15625 45.5322C3.91471 45.3864 3.62077 45.2702 3.27441 45.1836L2.37891 44.9785C1.6862 44.8099 1.23275 44.557 1.01855 44.2197C0.804362 43.8779 0.697266 43.5475 0.697266 43.2285C0.697266 42.5905 0.936523 42.1074 1.41504 41.7793C1.89811 41.4466 2.41764 41.2803 2.97363 41.2803C3.52962 41.2803 4.00358 41.3691 4.39551 41.5469C4.78743 41.7246 5.09049 42.0277 5.30469 42.4561L4.47754 43.0029ZM10.0215 48.1709C9.04167 48.1709 8.23047 47.8428 7.58789 47.1865C6.94987 46.5257 6.63086 45.7031 6.63086 44.7188C6.63086 43.7344 6.94759 42.9163 7.58105 42.2646C8.21908 41.6084 9.00977 41.2803 9.95312 41.2803C10.8965 41.2803 11.6507 41.5924 12.2158 42.2168C12.7855 42.8411 13.0703 43.6204 13.0703 44.5547V44.9785H7.61523C7.66992 45.653 7.92513 46.2135 8.38086 46.6602C8.83659 47.1068 9.34928 47.3301 9.91895 47.3301C10.484 47.3301 10.9443 47.2161 11.2998 46.9883C11.6598 46.7559 11.9333 46.4915 12.1201 46.1953L12.8379 46.7832C12.1087 47.7083 11.1699 48.1709 10.0215 48.1709ZM12.0654 44.2197C12.0654 43.5954 11.8786 43.0895 11.5049 42.7021C11.1312 42.3148 10.623 42.1211 9.98047 42.1211C9.33789 42.1211 8.78646 42.3353 8.32617 42.7637C7.87044 43.1921 7.64258 43.6774 7.64258 44.2197H12.0654ZM15.8799 48H14.957V41.4512H15.8799V48ZM15.8799 38.4502C16.0212 38.5732 16.0918 38.7327 16.0918 38.9287C16.0918 39.1247 16.0212 39.2865 15.8799 39.4141C15.7432 39.5371 15.5905 39.5986 15.4219 39.5986C15.2533 39.5986 15.0983 39.5371 14.957 39.4141C14.8158 39.2865 14.7451 39.1247 14.7451 38.9287C14.7451 38.7327 14.8158 38.5732 14.957 38.4502C15.0983 38.3226 15.2533 38.2588 15.4219 38.2588C15.5905 38.2588 15.7432 38.3226 15.8799 38.4502ZM19.9814 47.2207C20.2275 47.2936 20.4622 47.3301 20.6855 47.3301C20.9089 47.3301 21.1846 47.2458 21.5127 47.0771L21.5537 47.9316C21.2028 48.0911 20.8633 48.1709 20.5352 48.1709C20.207 48.1709 19.9473 48.1458 19.7559 48.0957C19.5645 48.0501 19.3366 47.9202 19.0723 47.7061C18.8125 47.4919 18.6826 47.0635 18.6826 46.4209V42.2852H17.3018V41.4512H18.6826V39.5986H19.6123V41.4512H21.499V42.2852H19.6123V46.1543C19.6123 46.7923 19.7354 47.1478 19.9814 47.2207ZM30.5225 48H29.5107V39.3457L27.7334 40.918L27.1045 40.1592L29.627 38.0879H30.5225V48ZM37.2559 44.0488C36.3079 44.0488 35.5446 43.7594 34.9658 43.1807C34.387 42.6019 34.0977 41.8659 34.0977 40.9727C34.0977 40.0794 34.4007 39.348 35.0068 38.7783C35.6175 38.2041 36.3877 37.917 37.3174 37.917C38.2516 37.917 39.0218 38.2018 39.6279 38.7715C40.234 39.3411 40.5371 40.0794 40.5371 40.9863C40.5371 41.5378 40.4551 42.0186 40.291 42.4287C40.1315 42.8389 39.9287 43.2445 39.6826 43.6455L37.0098 48H35.8203L38.5205 43.7412L38.4932 43.7139C38.1833 43.9372 37.7708 44.0488 37.2559 44.0488ZM39.3682 41.8545C39.4775 41.5947 39.5322 41.3053 39.5322 40.9863C39.5322 40.6673 39.4775 40.3779 39.3682 40.1182C39.2633 39.8584 39.113 39.6351 38.917 39.4482C38.721 39.2614 38.4863 39.1156 38.2129 39.0107C37.944 38.9014 37.6455 38.8467 37.3174 38.8467C36.9938 38.8467 36.6953 38.9014 36.4219 39.0107C36.153 39.1156 35.9206 39.2614 35.7246 39.4482C35.5286 39.6351 35.376 39.8584 35.2666 40.1182C35.1618 40.3779 35.1094 40.6673 35.1094 40.9863C35.1094 41.3053 35.1618 41.5947 35.2666 41.8545C35.376 42.1143 35.5286 42.3398 35.7246 42.5312C35.9206 42.7227 36.153 42.8708 36.4219 42.9756C36.6953 43.0758 36.9938 43.126 37.3174 43.126C37.6455 43.126 37.944 43.0758 38.2129 42.9756C38.4863 42.8708 38.721 42.7227 38.917 42.5312C39.113 42.3398 39.2633 42.1143 39.3682 41.8545ZM43.374 38.4092C43.8161 38.0811 44.3903 37.917 45.0967 37.917C45.8076 37.917 46.3818 38.0811 46.8193 38.4092C47.2614 38.7373 47.6032 39.1543 47.8447 39.6602C48.0863 40.1615 48.248 40.7129 48.3301 41.3145C48.4167 41.916 48.46 42.4925 48.46 43.0439C48.46 43.5954 48.4167 44.1719 48.3301 44.7734C48.248 45.375 48.0863 45.9287 47.8447 46.4346C47.6032 46.9359 47.2614 47.3506 46.8193 47.6787C46.3818 48.0068 45.8076 48.1709 45.0967 48.1709C44.3903 48.1709 43.8161 48.0068 43.374 47.6787C42.9365 47.3506 42.597 46.9359 42.3555 46.4346C42.1139 45.9287 41.9499 45.375 41.8633 44.7734C41.7812 44.1719 41.7402 43.5954 41.7402 43.0439C41.7402 42.4925 41.7812 41.916 41.8633 41.3145C41.9499 40.7129 42.1139 40.1615 42.3555 39.6602C42.597 39.1543 42.9365 38.7373 43.374 38.4092ZM46.375 39.2842C46.0651 38.9925 45.639 38.8467 45.0967 38.8467C44.5589 38.8467 44.1328 38.9925 43.8184 39.2842C43.5039 39.5713 43.2669 39.929 43.1074 40.3574C42.9525 40.7858 42.8522 41.2438 42.8066 41.7314C42.7656 42.2145 42.7451 42.652 42.7451 43.0439C42.7451 43.4359 42.7656 43.8757 42.8066 44.3633C42.8522 44.8464 42.9525 45.3021 43.1074 45.7305C43.2669 46.1589 43.5039 46.5189 43.8184 46.8105C44.1328 47.0977 44.5589 47.2412 45.0967 47.2412C45.639 47.2412 46.0651 47.0977 46.375 46.8105C46.6895 46.5189 46.9264 46.1589 47.0859 45.7305C47.2454 45.3021 47.3457 44.8464 47.3867 44.3633C47.4277 43.8757 47.4482 43.4359 47.4482 43.0439C47.4482 42.652 47.4277 42.2145 47.3867 41.7314C47.3457 41.2438 47.2454 40.7858 47.0859 40.3574C46.9264 39.929 46.6895 39.5713 46.375 39.2842ZM52.9443 42.0391C53.8923 42.0391 54.6533 42.3285 55.2275 42.9072C55.8063 43.4814 56.0957 44.2174 56.0957 45.1152C56.0957 46.013 55.7926 46.7467 55.1865 47.3164C54.5804 47.8861 53.8102 48.1709 52.876 48.1709C51.9463 48.1709 51.1761 47.8861 50.5654 47.3164C49.9593 46.7422 49.6562 46.0039 49.6562 45.1016C49.6562 44.5501 49.7383 44.0693 49.9023 43.6592C50.0664 43.249 50.2692 42.8434 50.5107 42.4424L53.1836 38.0879H54.373L51.6729 42.3467L51.7002 42.374C52.0146 42.1507 52.4294 42.0391 52.9443 42.0391ZM50.8252 44.2334C50.7204 44.4932 50.668 44.7826 50.668 45.1016C50.668 45.4206 50.7204 45.71 50.8252 45.9697C50.9346 46.2295 51.0872 46.4551 51.2832 46.6465C51.4792 46.8379 51.7116 46.986 51.9805 47.0908C52.2539 47.1911 52.5524 47.2412 52.876 47.2412C53.2041 47.2412 53.5026 47.1911 53.7715 47.0908C54.0449 46.986 54.2796 46.8379 54.4756 46.6465C54.6715 46.4551 54.8219 46.2295 54.9268 45.9697C55.0361 45.71 55.0908 45.4206 55.0908 45.1016C55.0908 44.7826 55.0361 44.4932 54.9268 44.2334C54.8219 43.9736 54.6715 43.7503 54.4756 43.5635C54.2796 43.3766 54.0449 43.2308 53.7715 43.126C53.5026 43.0166 53.2041 42.9619 52.876 42.9619C52.5524 42.9619 52.2539 43.0166 51.9805 43.126C51.7116 43.2308 51.4792 43.3766 51.2832 43.5635C51.0872 43.7503 50.9346 43.9736 50.8252 44.2334Z" fill="#111111"/>
</svg>
